<svg width="1316.725220" height="321.428223" viewBox="0 0 1316.73 321.428" fill="none" xmlns="http://www.w3.org/2000/svg" xmlns:xlink="http://www.w3.org/1999/xlink">
	<desc>
			Created with Pixso.
	</desc>
	<defs/>
	<path id="GAMBIT" d="M1035.56 108.45C1035.56 138.57 1044.56 155 1059.78 172.33L1057.28 174.82C1041.77 157.11 1031.85 139.78 1031.85 108.45C1031.85 50.48 1072.18 15.13 1140.07 15.13C1167.93 15.13 1197.06 21.04 1221.89 26.03C1239.82 30.04 1255.94 33.14 1267.15 33.14C1290.39 33.14 1304.01 18.61 1313.32 0L1316.73 1.21L1261.55 115.26C1266.55 114.05 1271.16 113.75 1275.86 113.75C1300 113.75 1314.91 123.97 1314.91 145.08C1314.91 182.54 1264.96 250.43 1180.04 250.43C1116.47 250.43 1079.61 223.49 1079.61 179.44C1079.61 120.86 1143.79 58.57 1183.14 40.56C1166.11 38.44 1149.68 36.25 1128.27 36.25C1091.04 36.25 1035.56 43.36 1035.56 108.45ZM457.83 246.12L457.83 242.41L488.56 242.41L488.56 25.73L461.32 25.73L461.32 22.02L518 22.02C537.53 60.47 559.55 97.32 579.38 137.28C610.41 94.22 657.79 46.77 722.27 2.49L724.77 5.9C687.61 34.05 682.01 59.79 682.01 99.82L682.01 242.41L712.36 242.41L712.36 246.12L625.25 246.12L625.25 242.41L656.28 242.41L656.28 105.04C656.28 72.2 657.18 60.47 685.41 34.05C640.46 70 605.72 106.94 581.58 140.69C602.01 182.54 612.83 210.77 612.83 237.41C612.83 265.34 599.82 294.78 567.27 295.09L566.97 295.09C544.04 294.78 531.63 273.36 531.63 249.52C531.63 226.89 542.52 194.96 564.17 159.61C541.54 115.26 517.4 72.2 492.27 25.73L492.27 242.41L523 242.41L523 246.12L457.83 246.12ZM181.94 147.5L79.01 147.5L79.01 143.79L226.29 143.79L226.29 147.5L192.16 147.5L192.16 245.21C192.16 297.28 153.41 321.42 121.85 321.42C89.3 321.42 69.78 297.28 69.78 265.95C69.78 259.44 70.68 252.63 72.2 246.42C21.41 231.89 0 182.54 0 133.88C0 65.99 47.75 17.02 109.13 17.02C136.07 17.02 158.1 27.24 176.41 43.06L175.13 22.02L179.52 22.02L187.54 127.37L183.83 127.37L177.32 54.87C165.52 40.26 143.79 20.73 110.34 20.73C61.37 20.73 28.23 61.98 28.23 135.17C28.23 193.44 50.85 225.38 74.69 238.7C88.32 201.47 131.16 169.83 181.94 147.5ZM1168.54 210.17C1184.96 168.92 1218.79 126.77 1257.24 115.64L1303.1 21.72C1289.48 35.64 1267.46 43.97 1232.11 43.97C1219.4 43.97 1208.27 43.06 1197.67 41.85L1168.54 210.17ZM446.86 246.12L359.75 246.12L359.75 242.41L395.7 242.41L365.66 159.31C357.25 209.87 292.17 243.32 237.6 248.92C244.41 220.08 261.14 196.24 280.36 176.04C272.94 168.01 269.54 157.8 269.54 148.49C269.84 130.17 282.25 114.96 300.26 110.04L333.41 22.02L340.83 22.02L422.65 242.41L446.86 242.41L446.86 246.12ZM735.75 246.12L735.75 242.41L766.48 242.41L766.48 25.73L735.75 25.73L735.75 22.02L804.63 22.02C861.99 22.02 879.33 37.76 879.33 59.48C879.33 77.8 866.31 99.14 850.49 125.55L856.09 133.27C870.62 152.5 894.24 183.83 894.24 208.28C894.24 241.12 853.9 246.12 819.16 246.12L735.75 246.12ZM926.25 246.12L926.25 242.41L956.98 242.41L956.98 25.73L926.25 25.73L926.25 22.02L1013.75 22.02L1013.75 25.73L982.71 25.73L982.71 242.41L1013.75 242.41L1013.75 246.12L926.25 246.12ZM857.6 79.61C857.6 58.27 844.89 25.73 797.81 25.73L772.39 25.73C798.42 56.98 821.96 86.8 847.08 121.16C852.99 109.74 857.6 92.33 857.6 79.61ZM1107.84 176.34C1107.84 214.48 1124.56 238.1 1158.92 244.6L1194.27 41.55L1193.66 41.55C1188.74 41.85 1183.44 43.97 1176.93 47.75C1136.6 73.11 1107.84 130.47 1107.84 176.34ZM315.4 107.84C330.01 107.84 343.03 112.84 352.03 121.47L327.51 49.87L305.18 108.75C308.59 108.15 312.3 107.84 315.4 107.84ZM792.21 208.28C810.23 182.54 827.26 156.21 844.59 126.16L844.89 125.86C826.65 99.14 809.85 78.4 792.21 56.38L792.21 208.28ZM273.55 148.49C273.55 155.9 276.35 165.82 283.16 173.24C290.96 164.3 300.26 155.6 308.59 147.88C320.4 136.07 330.92 125.86 337.43 116.55C330.61 113.45 323.5 111.86 315.7 111.86C292.17 111.86 273.55 127.37 273.55 148.49ZM1162.71 245.21C1168.23 246.12 1174.43 246.72 1181.25 246.72C1265.26 246.72 1291.6 177.93 1291.6 140.99C1291.6 130.17 1289.48 117.15 1275.86 117.15C1219.09 117.15 1171.34 189.05 1162.71 245.21ZM270.14 238.1C312 228.48 360.96 195.86 360.96 155.3C360.96 139.78 354.76 125.55 340.83 118.36C336.21 125.25 329.02 132.67 321.31 140.99C294.36 169.22 270.14 196.55 270.14 238.1ZM772.99 242.41L815.45 242.41C852.38 242.41 870.93 221.6 870.93 192.16C870.93 170.81 860.71 149.39 847.69 130.17C822.87 170.81 800.24 204.27 772.99 242.41ZM78.1 240.52C86.8 244.91 96.42 247.03 104.44 247.03C153.1 247.03 182.92 201.47 188.14 149.09C135.17 171.12 91.72 202.75 78.1 240.52ZM535.33 249.52C535.33 271.55 546.53 291.38 567.27 291.38C589.6 291.38 596.71 274.04 596.71 256.03C596.71 232.5 585.59 202.37 566.36 163.32C545.63 197.45 535.33 227.8 535.33 249.52ZM121.85 317.72C138.87 317.72 158.4 310 171.72 294.48L171.72 210.47C156.51 234.31 133.58 250.74 104.44 250.74C93.92 250.74 84.31 249.52 75.91 247.33C74.39 253.23 73.48 259.74 73.48 265.95C73.48 295.39 91.42 317.72 121.85 317.72Z" fill="#F03210" fill-opacity="1.000000" fill-rule="evenodd"/>
</svg>
