<svg width="1342.239014" height="191.337891" viewBox="0 0 1342.24 191.338" fill="none" xmlns="http://www.w3.org/2000/svg" xmlns:xlink="http://www.w3.org/1999/xlink">
	<desc>
			Created with Pixso.
	</desc>
	<defs/>
	<path id="All rights reserved" d="M68.59 0L111.22 130.51C114.82 141.46 118.78 143.83 129.77 143.83L129.77 148.14L75.23 148.14L75.23 143.83C91.97 143.83 92.15 140.93 88.72 130.51L80.11 104.01L34.01 104.01L25.75 130.51C22.5 140.93 22.5 143.83 39.41 143.83L39.41 148.14L0 148.14L0 143.83C10.98 143.83 14.76 141.46 18.36 130.51L59.58 0L68.59 0ZM163.6 3.07L163.6 129.59C163.6 141.1 165.22 143.83 176.21 143.83L176.21 148.14L133.89 148.14L133.89 143.83C144.88 143.83 146.68 141.1 146.68 129.59L146.68 26.27C146.68 26.07 146.68 25.88 146.68 25.68C146.68 14.51 146.68 12.52 136.79 17.44L134.81 13.66L148.31 6.85L161.09 0.52L163.6 3.07ZM210.58 3.07L210.58 129.59C210.58 141.1 212.2 143.83 223.19 143.83L223.19 148.14L180.87 148.14L180.87 143.83C191.86 143.83 193.66 141.1 193.66 129.59L193.66 26.27C193.66 26.07 193.66 25.88 193.66 25.68C193.66 14.51 193.66 12.52 183.77 17.44L181.79 13.66L195.29 6.85L208.07 0.52L210.58 3.07ZM373.31 11.16C373.31 16.91 368.66 21.62 362.68 21.62C356.92 21.62 352.26 16.91 352.26 11.16C352.26 5.22 356.92 0.52 362.68 0.52C368.66 0.52 373.31 5.22 373.31 11.16ZM501.11 0.52L503.62 3.07L503.62 68.02L504.19 68.02C511 58.13 520.36 49.48 532.27 49.48C545.59 49.48 551.52 58.84 551.52 75.41L551.52 129.59C551.52 141.1 553.32 143.83 564.31 143.83L564.31 148.14L522.91 148.14L522.91 143.83C532.97 143.83 534.6 141.1 534.6 129.59L534.6 75.41C534.6 66.04 531.7 61.04 524.71 61.04C517.68 61.04 510.12 67.14 503.62 75.58L503.62 129.59C503.62 141.1 505.25 143.83 515.35 143.83L515.35 148.14L473.91 148.14L473.91 143.83C484.9 143.83 486.7 141.1 486.7 129.59L486.7 26.27L486.7 25.68C486.7 14.51 486.7 12.52 476.81 17.44L474.83 13.66L488.33 6.85L501.11 0.52ZM1330.9 127.15C1330.89 137.66 1330.89 139.7 1340.26 135L1342.24 138.77L1316.53 151.74L1313.98 149.23L1313.98 133.55L1313.28 133.55C1306.25 144.88 1299.04 151.74 1287.35 151.74C1268.1 151.74 1256.02 133.37 1256.02 104.41C1256.02 73.43 1269.38 49.48 1292.05 49.48C1302.12 49.48 1309.31 55.23 1313.63 61.04L1313.98 61.04L1313.98 26.27C1313.98 25.82 1313.98 25.38 1313.98 24.96C1314 14.43 1314 12.62 1304.62 17.27L1302.64 13.49L1328.4 0.52L1330.9 3.07L1330.9 125.99C1330.9 126.39 1330.9 126.77 1330.9 127.15ZM603.55 141.1C611.81 141.1 615.06 132.31 615.42 108.54L619.55 108.54C619.37 136.62 615.59 151.74 598.5 151.74C584.26 151.74 575.82 142.55 575.82 118.43L575.82 60.64L561.76 60.64L561.76 53.08C578.33 52.55 585.36 46.09 586.98 27.37L592.56 27.37L592.56 53.08L613.44 53.08L613.44 60.64L592.56 60.64L592.56 112.67C592.56 130.29 593.62 141.1 603.55 141.1ZM56.51 32.56L36.34 96.46L77.73 96.46L57.04 32.56L56.51 32.56ZM299.17 68.2C303.83 59.76 311.56 49.48 323.25 49.48C331.03 49.48 336.61 53.83 336.61 60.46C336.61 65.87 333.18 70.57 327.07 70.57C322.02 70.57 319.87 68.37 318.24 65.52C316.97 63.36 315.91 62.44 314.11 62.44C308.71 62.44 304.57 68.02 298.6 78.48L298.6 129.59C298.6 141.1 301.15 143.83 317.5 143.83L317.5 148.14L268.89 148.14L268.89 143.83C279.88 143.83 281.68 141.1 281.68 129.59L281.68 75.41L281.68 74.81C281.68 63.64 281.68 61.47 271.79 66.4L269.81 62.62L283.31 55.98L296.09 49.48L298.6 52.03L298.6 68.2L299.17 68.2ZM372.04 52.03L372.04 129.59C372.04 141.1 373.66 143.83 384.65 143.83L384.65 148.14L342.33 148.14L342.33 143.83C353.32 143.83 355.12 141.1 355.12 129.59L355.12 75.41L355.12 74.81C355.12 63.64 355.12 61.47 345.23 66.4L343.25 62.62L356.75 55.98L369.53 49.48L372.04 52.03ZM403.55 124.18C403.55 130.29 410.93 132.84 429.65 132.84C455.58 132.84 470.35 139.13 470.35 156.79C470.35 175.12 448.9 191.33 421.17 191.33C402.67 191.33 386.46 185.05 386.46 169.54C386.46 159.12 394.19 151.21 404.08 143.83C397.44 141.67 394.19 137.5 394.19 131.04C394.19 123.66 399.95 117.37 406.27 111.4C398.5 105.46 393.66 95.93 393.66 83.89C393.66 62.79 408.43 49.48 426.4 49.48C432.91 49.48 439.19 51.28 444.42 54.71C450.7 51.67 457.73 49.48 464.41 49.48C469.07 49.48 471.05 51.67 471.05 54.88C471.05 58.13 468.9 59.41 465.29 59.41C459.71 59.41 455.93 59.58 451.45 60.46L449.65 59.23C455.41 65.17 459.01 73.6 459.01 83.89C459.01 104.76 444.07 118.08 426.4 118.08C420.47 118.08 414.89 116.63 410.23 113.95C406.06 117.9 403.55 120.98 403.55 124.18ZM632.87 149.94L628.74 149.94L628.74 113.77L632.87 113.77C635.37 131.22 644.73 144.36 658.97 144.36C666.71 144.36 670.31 139.65 670.31 132.31C670.31 121.86 662.4 115.18 650.14 104.41C637.92 93.6 628.56 85.86 628.56 71.98C628.56 58.66 638.1 49.48 652.12 49.48C664.91 49.48 669.61 56.68 672.64 56.68C674.79 56.68 674.79 54.88 674.79 51.28L678.97 51.28L678.97 80.99L674.79 80.99C672.29 67.67 664.38 57.04 652.86 57.04C645.31 57.04 642.58 62.27 642.58 66.62C642.58 74.88 649.44 80.81 660.25 90.17C676.59 104.23 684.37 111.97 684.37 127.09C684.37 144 672.64 151.74 659.5 151.74C645.31 151.74 639.55 144.53 635.77 144.53C633.4 144.53 632.87 146.33 632.87 149.94ZM762.13 68.2C766.79 59.76 774.52 49.48 786.21 49.48C793.99 49.48 799.57 53.83 799.57 60.46C799.57 65.87 796.14 70.57 790.04 70.57C784.98 70.57 782.83 68.37 781.2 65.52C779.93 63.36 778.87 62.44 777.07 62.44C771.67 62.44 767.54 68.02 761.56 78.48L761.56 129.59C761.56 141.1 764.11 143.83 780.46 143.83L780.46 148.14L731.85 148.14L731.85 143.83C742.84 143.83 744.64 141.1 744.64 129.59L744.64 75.41L744.64 74.81C744.64 63.64 744.64 61.47 734.75 66.4L732.77 62.62L746.27 55.98L759.05 49.48L761.56 52.03L761.56 68.2L762.13 68.2ZM843.64 138.42C852.3 138.42 860.56 131.57 865.61 110.34L869.92 110.34C866.14 138.07 854.28 151.74 837.53 151.74C817.01 151.74 804.57 132.1 804.57 101.33C804.57 73.6 817.19 49.48 839.16 49.48C859.68 49.48 869.74 69.3 869.74 95.58L822.06 95.58L822.06 96.28C822.06 120.76 829.45 138.42 843.64 138.42ZM885.59 149.94L881.46 149.94L881.46 113.77L885.59 113.77C888.09 131.22 897.45 144.36 911.69 144.36C919.43 144.36 923.03 139.65 923.03 132.31C923.03 121.86 915.12 115.18 902.86 104.41C890.64 93.6 881.28 85.86 881.28 71.98C881.28 58.66 890.82 49.48 904.84 49.48C917.63 49.48 922.33 56.68 925.36 56.68C927.51 56.68 927.51 54.88 927.51 51.28L931.69 51.28L931.69 80.99L927.51 80.99C925.01 67.67 917.1 57.04 905.58 57.04C898.03 57.04 895.3 62.27 895.3 66.62C895.3 74.88 902.16 80.81 912.97 90.17C929.31 104.23 937.09 111.97 937.09 127.09C937.09 144 925.36 151.74 912.22 151.74C898.03 151.74 892.27 144.53 888.49 144.53C886.12 144.53 885.59 146.33 885.59 149.94ZM987.28 138.42C995.94 138.42 1004.2 131.57 1009.26 110.34L1013.56 110.34C1009.79 138.07 997.92 151.74 981.17 151.74C960.65 151.74 948.21 132.1 948.21 101.33C948.21 73.6 960.83 49.48 982.8 49.48C1003.33 49.48 1013.39 69.3 1013.39 95.58L965.7 95.58L965.7 96.28C965.7 120.76 973.09 138.42 987.28 138.42ZM1050.85 68.2C1055.51 59.76 1063.25 49.48 1074.93 49.48C1082.72 49.48 1088.3 53.83 1088.3 60.46C1088.3 65.87 1084.87 70.57 1078.76 70.57C1073.71 70.57 1071.55 68.37 1069.93 65.52C1068.65 63.36 1067.6 62.44 1065.8 62.44C1060.39 62.44 1056.26 68.02 1050.28 78.48L1050.28 129.59C1050.28 141.1 1052.82 143.83 1069.18 143.83L1069.18 148.14L1020.58 148.14L1020.58 143.83C1031.56 143.83 1033.36 141.1 1033.36 129.59L1033.36 75.41L1033.36 74.81C1033.37 63.64 1033.37 61.47 1023.48 66.4L1021.5 62.62L1034.99 55.98L1047.78 49.48L1050.28 52.03L1050.28 68.2L1050.85 68.2ZM1216.61 138.42C1225.26 138.42 1233.52 131.57 1238.57 110.34L1242.89 110.34C1239.11 138.07 1227.24 151.74 1210.5 151.74C1189.97 151.74 1177.54 132.1 1177.54 101.33C1177.54 73.6 1190.15 49.48 1212.12 49.48C1232.65 49.48 1242.71 69.3 1242.71 95.58L1195.03 95.58L1195.03 96.28C1195.03 120.76 1202.41 138.42 1216.61 138.42ZM1140.29 123.31L1155.23 71.1C1158.48 59.94 1158.48 57.43 1146.97 57.43L1146.97 53.08L1176.68 53.08L1176.68 57.43C1168.9 57.43 1165.87 59.94 1162.62 71.1L1139.59 152.27L1129.13 152.27L1105.18 71.1C1101.97 59.76 1098.72 57.43 1091.16 57.43L1091.16 53.08L1132.21 53.08L1132.21 57.43C1121.56 57.43 1121.56 59.94 1124.81 71.1L1139.76 123.31L1140.29 123.31ZM441.69 82.61C439.89 64.42 434.14 55.45 423.9 56.51C413.83 57.26 409.48 66.79 410.93 85.12C412.56 103.49 418.84 111.79 428.77 111.05C438.84 110.34 443.32 100.63 441.69 82.61ZM852.47 88.19C852.47 70.92 849.22 57.04 838.46 57.04C827.82 57.04 823.12 70 822.24 88.19L852.47 88.19ZM996.11 88.19C996.11 70.92 992.86 57.04 982.1 57.04C971.46 57.04 966.76 70 965.88 88.19L996.11 88.19ZM1225.43 88.19C1225.43 70.92 1222.18 57.04 1211.42 57.04C1200.79 57.04 1196.07 70 1195.19 88.19L1225.43 88.19ZM1294.21 141.1C1303.74 141.1 1308.97 133.19 1313.98 125.11L1313.98 90C1313.98 68.37 1306.25 57.04 1295.82 57.04C1279.97 57.04 1275.49 77.21 1275.49 99C1275.49 122.56 1280.72 141.1 1294.21 141.1ZM398.67 162.72C398.67 171.73 409.13 177.49 428.03 177.49C448.2 177.49 462.96 170.99 462.96 158.77C462.96 148.66 451.98 146.68 431.46 146.68C422.45 146.68 415.06 146.33 409.48 145.23C401.4 152.62 398.67 157.14 398.67 162.72Z" fill="#F03210" fill-opacity="1.000000" fill-rule="evenodd"/>
</svg>
