<svg width="644.095703" height="233.408203" viewBox="0 0 644.096 233.408" fill="none" xmlns="http://www.w3.org/2000/svg" xmlns:xlink="http://www.w3.org/1999/xlink">
	<desc>
			Created with Pixso.
	</desc>
	<defs/>
	<path id="ICC." d="M304.33 229.09L300.55 229.09L303.05 208.66C275.2 231.28 245.68 233.4 229.56 233.4C160.46 233.4 121.41 185.34 121.41 119.05C121.41 67.28 150.24 0 229.94 0C252.57 0 278.9 7.11 300.93 26.03L299.64 4.99L303.35 4.99C304.33 20.73 305.54 35.64 306.76 49.95C308.04 64.48 309.25 80.3 310.16 96.72L306.45 96.72L301.84 37.84C280.12 11.5 252.19 3.7 230.24 3.7C170.98 3.7 149.64 57.36 149.64 117.15C149.64 194.96 185.89 229.7 231.45 229.7C264.3 229.7 291.62 211.76 304.64 196.85L315.16 117.15L318.87 117.15L304.33 229.09ZM546.6 229.09L542.82 229.09L545.32 208.66C517.46 231.28 487.95 233.4 471.83 233.4C402.73 233.4 363.68 185.34 363.68 119.05C363.68 67.28 392.51 0 472.21 0C494.84 0 521.17 7.11 543.2 26.03L541.91 4.99L545.62 4.99C546.6 20.73 547.81 35.64 549.03 49.95C550.31 64.48 551.52 80.3 552.43 96.72L548.72 96.72L544.11 37.84C522.39 11.5 494.46 3.7 472.51 3.7C413.25 3.7 391.91 57.36 391.91 117.15C391.91 194.96 428.16 229.7 473.72 229.7C506.57 229.7 533.89 211.76 546.91 196.85L557.43 117.15L561.14 117.15L546.6 229.09ZM0 229.09L0 225.38L30.72 225.38L30.72 8.7L0 8.7L0 4.99L87.49 4.99L87.49 8.7L56.46 8.7L56.46 225.38L87.49 225.38L87.49 229.09L0 229.09ZM628.58 231.59C620.18 231.59 613.06 225.38 613.06 216.37C613.06 207.67 620.18 200.86 628.58 200.86C637.58 200.86 644.09 207.97 644.09 216.37C644.09 224.78 637.58 231.59 628.58 231.59Z" fill="#F03210" fill-opacity="1.000000" fill-rule="evenodd"/>
</svg>
