<svg width="1419.921875" height="130.596680" viewBox="0 0 1419.92 130.597" fill="none" xmlns="http://www.w3.org/2000/svg" xmlns:xlink="http://www.w3.org/1999/xlink">
	<desc>
			Created with Pixso.
	</desc>
	<defs/>
	<path id="НАШИ СОБЫТИЯ" d="M613.55 8.75C594.97 12.79 580.15 27.46 577.83 45.24C577.18 50.38 576.72 55.37 576.72 60.4C576.72 65.54 577.18 70.53 578.28 75.82C580.3 85.35 585.29 95.93 589.21 102.03C597.63 114.98 612.14 122.94 627.87 122.94C631.15 122.94 634.61 122.63 638.04 121.83C652.21 118.71 663.44 109.53 669.54 97.5L666.11 117.8C665.31 117.49 663.75 117.95 662.53 118.9C655.83 123.55 648.02 127.01 639.45 128.88C634.77 129.79 630.08 130.44 625.55 130.44C595.61 130.44 568.61 109.53 561.91 79.1C560.96 74.41 560.34 69.73 560.34 65.24C560.34 35.26 581.26 8.26 611.65 1.56C616.33 0.49 621.17 0 625.85 0C634.42 0 642.88 1.71 650.5 4.98C651.14 5.33 654.11 4.68 654.57 3.42L660.17 25.59C651.45 14.51 637.89 7.65 623.38 7.65C620.1 7.65 616.83 7.95 613.55 8.75ZM744.72 130.59C715.73 130.59 690.14 112.96 683.28 79.25C682.33 75.06 682.03 70.68 682.03 66.61C682.03 34.65 706.82 7.5 732.87 1.9C737.56 0.79 742.09 0.34 746.77 0.34C776.71 0.34 803.86 21.06 810.41 51.49C811.52 56.17 811.98 60.86 811.98 65.39C811.98 95.32 791.22 122.33 760.79 128.88C755.34 130.1 750.05 130.59 744.72 130.59ZM1103.69 4.53L1156.71 4.53C1172.93 4.53 1184.32 3.27 1184.32 3.27C1184.32 3.27 1182.31 10.93 1181.55 17.17C1180.43 24.98 1180.43 38.84 1180.43 38.84C1180.43 38.84 1174.04 9.82 1155.65 9.82L1139.27 9.82C1138.62 17.63 1137.4 35.26 1137.4 59.14L1137.4 66.3C1137.56 91.74 1138.17 113.87 1138.97 119.05C1139.73 124.19 1146.43 127.62 1146.43 127.62L1113.53 127.62C1113.53 127.62 1120.23 125.6 1120.99 119.05C1121.93 110.29 1122.55 95.48 1122.55 73.96L1122.55 66.3C1122.25 38.39 1121.18 18.43 1120.53 9.82L1103.55 9.82C1085.91 10.93 1079.97 38.84 1079.97 38.84C1079.97 38.84 1079.97 24.98 1078.9 17.17C1078.11 10.93 1076.09 3.27 1076.09 3.27C1076.09 3.27 1087.47 4.53 1103.69 4.53ZM833.48 66.61C833.48 38.84 832.11 18.73 831.46 10.16C831 6.89 826.02 4.98 826.02 4.98L877.81 4.98C894.04 4.68 905.27 3.61 905.27 3.61C905.27 3.61 903.37 11.38 902.61 17.63C901.5 25.44 901.5 39.15 901.5 39.15C901.5 39.15 895.1 10.32 876.71 10.32L850.2 10.32C849.55 18.58 848.33 37.28 848.14 62.87L880.75 63.03C898.72 63.03 913.19 77.39 913.19 95.32C913.19 113.26 898.72 127.77 880.75 127.77L826.02 127.77C826.17 127.62 831 125.91 831.46 122.33C832.57 115.28 833.48 95.63 833.48 66.61ZM0 127.77C0 127.77 7 125.45 7.46 118.9C8.26 109.53 9.17 92.35 9.17 66.3C9.17 41.81 8.26 23.27 7.46 13.44C7 6.89 0.15 4.98 0.15 4.98L32.9 4.98C31.49 5.48 26.2 8.11 25.59 13.44C24.33 24.18 23.84 40.71 23.84 63.67C24.79 63.67 40.25 64.13 52.1 64.13C63.79 64.13 80.01 63.67 80.47 63.67C80.47 40.4 79.25 22.92 78.6 13.44C78.15 6.89 71.44 4.98 71.44 4.98L104.2 4.83C103.25 5.63 97.34 9.82 96.85 13.44C95.78 21.7 94.98 35.87 94.98 54.46C94.98 58.19 95.13 62.27 95.13 66.3C95.63 92.2 95.48 107.51 97.04 119.05C97.65 124.19 104.2 127.77 104.2 127.77L71.44 127.77C71.44 127.77 78.3 125.45 78.76 118.9C79.4 109.84 80.47 93.61 80.47 68.97C80.32 68.97 62.84 68.51 51.94 68.51C40.56 68.51 24.79 68.97 23.84 68.97C23.84 93.31 25.74 118.71 25.74 118.71C26.2 123.89 33.05 127.77 33.05 127.77L0 127.77ZM1410.4 66.3C1410.4 91.74 1411.16 108.73 1411.96 118.25C1412.57 124.65 1419.43 127.62 1419.43 127.62L1386.52 127.62C1386.52 127.62 1393.68 122.63 1394.18 117.34C1394.79 107.82 1395.74 91.29 1395.74 67.71L1385.11 67.56L1343.64 119.36C1342.99 120.12 1342.84 121.07 1342.84 121.68C1342.84 125.45 1349.69 127.62 1349.69 127.62L1313.21 127.47C1313.21 127.47 1323.49 123.74 1330.69 113.72L1330.99 113.42L1367.97 67.25C1351.9 66 1339.41 52.59 1339.41 36.21C1339.41 18.89 1353.46 4.83 1370.75 4.83L1401.34 4.98L1419.92 4.98C1419.92 4.98 1412.72 7.8 1412.11 14.05C1411.31 24.03 1410.4 42.27 1410.4 66.3ZM143.49 127.62L118.24 127.62C118.24 127.62 126.36 123.74 128.53 117.95C139.61 88.16 149.89 51.64 159.41 10.32L159.41 10.01C159.41 7.5 153.82 4.98 153.82 4.98L190 4.98C190 4.98 183.75 6.74 183.75 12.18C183.75 12.49 183.9 12.79 183.9 13.29C185.31 22.47 188.13 39.79 194.22 66.3C199.67 90.64 204.97 109.04 207.94 119.05C209.8 125.26 214.94 127.62 214.94 127.62L182.04 127.62C182.04 127.62 189.69 124.04 189.69 119.05C189.69 109.04 185.16 91.44 180.17 68.82L149.89 68.82L136.03 118.56C135.88 119.05 135.88 119.66 135.88 120.12C135.88 125.26 143.49 127.62 143.49 127.62ZM375.79 119.2C376.09 124.35 383.14 127.77 383.14 127.77L229 127.77C229 127.77 235.86 125.76 236.32 119.2C237.12 109.38 238.18 90.79 238.18 66.3C238.18 40.25 237.27 23.11 236.47 13.74C236.01 7.19 229.16 4.98 229.16 4.98L261.91 4.98C261.91 4.98 255.05 8.6 254.6 13.74C254.6 13.74 252.85 40.4 252.85 66.3C252.85 90.64 253.8 109.23 254.6 119.2C254.6 120.12 254.9 120.92 255.21 121.68C256.92 122.33 264.88 122.48 275.47 122.48L295.62 122.48C296.07 121.53 298.24 90.79 298.24 66.3C298.24 40.25 297.33 23.11 296.53 13.74C296.07 7.19 289.22 4.98 289.22 4.98L321.97 4.98C321.97 4.98 315.12 8.6 314.62 13.74C314.62 13.74 312.91 40.4 312.91 66.3C312.91 90.64 315.27 121.53 315.88 122.48C335.07 122.33 354.27 121.98 357.24 120.92C357.7 119.51 359.41 90.79 359.41 66.3C359.41 40.25 358.46 22.92 357.7 13.59C357.24 7.04 350.19 4.98 350.19 4.98L383.14 4.98C383.14 4.98 376.09 8.45 375.63 13.59C375.63 13.59 374.07 40.4 374.07 66.3C374.07 90.64 375.79 119.2 375.79 119.2ZM397.17 127.62C397.17 127.62 404.18 125.11 404.64 118.56C405.44 109.23 406.2 92.05 406.2 66C406.2 41.51 405.28 23.11 404.48 13.29C404.03 6.74 397.32 4.98 397.32 4.98L429.77 4.98C429.77 4.98 423.07 8.11 422.77 13.29L422.57 13.29C421.81 23.27 420.86 41.81 420.86 66C420.86 88.16 421.66 103.89 422.27 113.87C428.67 103.13 437.89 86.26 448.32 64.74C466.26 27.61 475.02 7.04 475.02 5.17L475.02 4.98L501.07 4.98C501.07 4.98 494.82 8.45 493.87 13.59C492.96 18.58 492.16 36.21 492.16 56.48L492.16 66C492.46 91.9 493.72 118.56 493.72 118.56C494.21 123.74 501.07 127.62 501.07 127.62L468.47 127.62C468.47 127.62 475.32 125.11 475.78 118.56C476.58 109.23 477.49 92.05 477.49 66C477.49 45.24 476.73 28.86 476.09 18.28L423.37 127.62L423.37 127.77L397.17 127.62ZM932.4 127.77C932.4 127.77 937.7 124.65 937.85 121.98C938.65 113.72 939.9 95.78 939.9 66.3C939.9 38.69 939.1 18.89 937.85 10.16C937.39 7.35 932.55 4.98 932.55 4.98L961.88 4.98C961.88 4.98 956.89 7.04 956.59 10.01C955.94 18.43 954.72 37.13 954.57 62.57L987.32 62.72C1005.26 62.72 1019.77 77.23 1019.77 95.17C1019.77 113.11 1005.26 127.62 987.32 127.62L944.89 127.77L932.4 127.77ZM1049.71 66C1049.71 91.44 1050.51 108.58 1051.27 118.1C1051.73 124.5 1058.77 127.47 1058.77 127.47L1025.82 127.47C1025.82 127.47 1033.03 122.48 1033.49 117.15C1034.29 107.02 1035.05 77.23 1035.05 51.49C1035.05 35.57 1034.74 21.21 1033.93 14.2C1033.32 8.91 1026.32 4.98 1026.32 4.98L1059.07 4.98C1059.07 4.98 1052.06 7.5 1051.42 13.59C1050.51 23.57 1049.71 41.66 1049.71 66ZM1198.39 127.62C1198.39 127.62 1205.4 125.11 1205.86 118.56C1206.66 109.23 1207.42 92.05 1207.42 66C1207.42 41.51 1206.5 23.11 1205.69 13.29C1205.25 6.74 1198.54 4.98 1198.54 4.98L1230.99 4.98C1230.99 4.98 1224.29 8.11 1223.99 13.29L1223.8 13.29C1223.03 23.27 1222.07 41.81 1222.07 66C1222.07 88.16 1222.88 103.89 1223.49 113.87C1229.89 103.13 1239.11 86.26 1249.54 64.74C1267.48 27.61 1276.24 7.04 1276.24 5.17L1276.24 4.98L1302.29 4.98C1302.29 4.98 1296.04 8.45 1295.09 13.59C1294.18 18.58 1293.38 36.21 1293.38 56.48L1293.38 66C1293.68 91.9 1294.93 118.56 1294.93 118.56C1295.43 123.74 1302.29 127.62 1302.29 127.62L1269.68 127.62C1269.68 127.62 1276.54 125.11 1277 118.56C1277.8 109.23 1278.72 92.05 1278.72 66C1278.72 45.24 1277.94 28.86 1277.31 18.28L1224.6 127.62L1224.6 127.77L1198.39 127.62ZM734.89 9.06C716.34 13.1 702.44 29.02 699.16 45.39C698.4 49.47 697.95 54.15 697.95 59.14C697.95 64.74 698.56 70.53 699.66 75.98C701.68 85.5 706.82 96.12 710.55 102.03C718.36 114.22 733.82 122.94 750.05 122.94C753.17 122.94 756.29 122.63 759.38 121.98C778.57 117.8 792.63 101.42 795.29 83.94C795.9 80.51 796.21 75.67 796.21 70.68C796.21 65.69 795.75 60.21 794.8 55.56C792.63 45.24 788.4 34.81 782.65 27.3C773.89 16.07 759.57 8.11 744.26 8.11C741.14 8.11 738.01 8.45 734.89 9.06ZM1375.59 10.16C1362.34 10.77 1351.9 22.77 1351.9 36.21C1351.9 49.62 1362.98 62.57 1376.39 62.57L1395.74 62.57L1395.74 50.88C1395.74 35.41 1395.58 21.55 1394.63 14.35C1394.48 12.94 1393.87 11.73 1393.07 10.62C1389.19 10.32 1384.65 10.01 1380.43 10.01C1378.71 10.01 1377.15 10.01 1375.59 10.16ZM165.66 12.94L151.45 63.67L178.91 63.67C173.16 38.69 168.33 21.86 165.66 12.94ZM1006.83 95.17C1006.83 81.27 995.89 68.66 981.99 68.02C980.77 68.02 979.36 67.86 977.8 67.86C970.94 67.86 961.88 68.51 954.57 68.97C954.57 95.78 955.63 112.81 956.28 121.22C964.55 121.83 974.52 122.48 981.38 122.48C995.28 122.48 1006.83 109.04 1006.83 95.17ZM900.25 95.32C900.25 81.42 889.5 68.97 875.6 68.32C874.38 68.32 872.98 68.17 871.41 68.17C864.56 68.17 855.49 68.82 848.14 69.27C848.14 95.93 849.25 112.96 849.86 121.38C858.16 121.98 867.99 122.63 874.84 122.63C888.7 122.63 900.25 109.23 900.25 95.32Z" fill="#F03210" fill-opacity="1.000000" fill-rule="evenodd"/>
</svg>
